<svg width="778" height="470" viewBox="0 0 778 470" fill="none" xmlns="http://www.w3.org/2000/svg">
<path d="M28.8664 31.0177C-0.173169 31.0177 -3.79034 451.959 28.8664 459.479C61.5232 466.999 720.354 466.647 751.201 459.479C782.047 452.312 778.43 44.4811 751.201 31.0177M28.8664 31.0177C79.6766 27.5323 368.262 -24.413 751.201 31.0177M28.8664 31.0177C147.839 100.297 226.682 162.835 226.682 162.835M751.201 31.0177C762.959 48.1084 440.843 281.188 406.378 281.188C371.913 281.188 328.527 245.68 313.8 230.236" stroke="black" stroke-width="10"/>
<path d="M207.666 370.615L209.717 368.955C211.279 368.825 212.126 368.011 212.256 366.514C212.386 365.016 213.46 363.714 215.479 362.607L216.651 360.947C217.627 359.971 220.296 358.701 224.658 357.139C225.765 356.488 226.514 355.902 226.904 355.381C227.035 355.251 227.165 355.186 227.295 355.186L228.858 355.576C229.704 355.576 230.778 355.348 232.08 354.893C233.447 354.437 234.749 354.209 235.986 354.209L240.088 354.014C240.348 354.014 240.869 354.209 241.651 354.6C242.497 354.99 243.506 355.186 244.678 355.186C246.11 355.186 247.412 355.837 248.584 357.139C249.821 358.441 250.44 359.645 250.44 360.752C250.44 362.77 249.398 364.821 247.315 366.904C245.231 368.988 243.571 370.16 242.334 370.42C241.227 371.527 240.381 372.243 239.795 372.568C239.209 372.829 238.591 373.285 237.94 373.936C237.354 374.521 236.865 374.814 236.475 374.814C236.214 374.814 236.019 374.749 235.889 374.619C235.759 374.424 235.563 374.326 235.303 374.326C234.261 374.326 233.122 375.596 231.885 378.135L230.127 377.939C229.02 378.656 228.304 379.437 227.979 380.283C227.653 381.13 226.97 381.553 225.928 381.553C223.519 383.962 221.891 385.166 221.045 385.166C220.915 385.166 220.459 385.036 219.678 384.775C219.157 385.426 218.897 386.11 218.897 386.826C218.897 387.607 218.376 388.063 217.334 388.193L216.065 389.365L215.088 389.17L213.135 391.221C212.158 391.221 211.149 391.546 210.108 392.197C209.977 392.979 209.782 393.988 209.522 395.225C209.261 396.396 209.131 397.048 209.131 397.178C209.131 399.066 210.856 400.01 214.307 400.01L218.994 399.326C220.231 399.326 221.371 399.001 222.412 398.35C223.519 397.699 224.691 397.373 225.928 397.373C226.318 397.373 226.904 397.243 227.686 396.982L228.662 397.373C229.118 396.396 229.964 395.518 231.201 394.736C232.438 393.955 233.415 393.564 234.131 393.564L235.108 392.979C235.368 392.197 235.759 391.676 236.279 391.416L237.061 390.732C237.582 390.212 238.07 389.951 238.526 389.951H239.893L240.283 389.756C241.065 388.063 242.139 387.087 243.506 386.826C244.938 386.501 245.817 386.012 246.143 385.361C246.533 384.71 247.184 384.32 248.096 384.189C249.007 384.059 249.756 383.636 250.342 382.92C250.993 382.139 251.774 381.423 252.686 380.771C253.597 380.12 254.216 379.632 254.541 379.307C254.932 378.981 255.257 378.818 255.518 378.818C255.908 378.818 256.104 379.111 256.104 379.697C256.104 380.283 256.234 380.576 256.494 380.576C256.755 380.576 256.885 380.446 256.885 380.186C256.885 379.925 256.82 379.6 256.69 379.209V378.525C256.69 377.549 257.21 376.898 258.252 376.572L262.647 373.74C262.777 372.373 263.135 371.592 263.721 371.396C264.372 371.136 264.86 370.876 265.186 370.615C265.511 370.29 265.869 370.127 266.26 370.127C267.106 370.127 267.529 370.615 267.529 371.592L267.041 374.131L267.529 376.768C267.529 377.158 267.204 377.712 266.553 378.428C265.967 379.079 265.511 380.12 265.186 381.553C264.86 382.92 264.437 383.669 263.916 383.799H263.33C262.158 385.036 261.214 385.785 260.498 386.045C259.847 386.24 259.326 386.631 258.936 387.217L255.615 391.025C254.964 391.676 254.411 392.262 253.955 392.783C253.499 393.304 253.141 393.564 252.881 393.564L252.1 392.783C252.1 392.653 251.97 392.588 251.709 392.588C251.058 392.588 250.635 392.979 250.44 393.76C250.309 394.541 249.984 395.225 249.463 395.811C247.51 396.722 246.24 397.568 245.654 398.35L245.068 398.545H243.311C242.464 398.545 241.878 399.196 241.553 400.498C241.227 401.735 240.283 402.451 238.721 402.646C237.223 402.842 236.149 403.232 235.498 403.818C235.368 403.949 235.075 404.079 234.619 404.209C234.164 404.339 233.252 404.86 231.885 405.771L223.682 408.701C223.031 409.027 222.608 409.189 222.412 409.189L219.678 409.58C219.287 409.58 218.897 409.32 218.506 408.799C218.115 408.278 217.855 408.018 217.725 408.018L215.967 408.604C214.665 408.994 213.428 409.189 212.256 409.189C211.605 409.189 210.889 408.962 210.108 408.506C209.326 408.05 208.708 407.725 208.252 407.529C206.364 407.529 205.029 406.064 204.248 403.135L203.076 403.33C202.816 403.33 201.937 401.019 200.44 396.396C200.049 395.876 199.43 395.518 198.584 395.322C197.738 395.062 197.315 394.411 197.315 393.369C197.315 390.439 197.933 388.486 199.17 387.51C200.472 386.468 201.188 385.687 201.318 385.166L202.686 380.088C202.946 379.893 203.272 379.242 203.662 378.135L205.908 374.033C206.169 373.577 206.755 372.438 207.666 370.615ZM228.272 364.756L227.1 365.342C226.839 365.472 226.058 366.058 224.756 367.1C223.519 368.076 222.282 368.89 221.045 369.541C219.873 370.127 218.636 371.722 217.334 374.326C216.097 376.93 215.479 378.428 215.479 378.818C215.479 379.209 215.674 379.404 216.065 379.404L219.385 377.939C220.622 377.354 221.761 376.605 222.803 375.693C223.91 374.782 225.472 373.675 227.49 372.373L228.272 371.592C228.402 371.331 228.988 370.876 230.029 370.225C231.136 369.508 231.95 368.825 232.471 368.174L233.447 367.783C234.554 366.025 235.661 364.951 236.768 364.561C237.94 364.17 238.526 363.779 238.526 363.389C238.526 362.607 237.907 362.217 236.67 362.217C236.149 362.217 235.368 362.542 234.326 363.193H232.08C231.82 363.193 231.104 363.584 229.932 364.365L228.272 364.756ZM298.975 366.025L301.709 364.756C302.621 364.17 303.499 363.324 304.346 362.217L307.764 359.775C309.717 358.473 310.986 357.822 311.572 357.822L313.135 358.408C313.265 358.408 313.656 358.018 314.307 357.236C315.023 356.39 315.837 355.967 316.748 355.967C317.92 355.967 319.515 356.846 321.533 358.604C323.552 360.361 324.561 361.924 324.561 363.291L324.17 366.611C324.17 367.132 324.43 368.597 324.951 371.006V371.787L324.561 374.131L324.951 376.572L323.877 381.357C323.877 382.594 324.3 383.213 325.147 383.213C326.253 382.171 327.197 381.553 327.979 381.357L329.346 379.99C329.867 379.469 330.257 379.209 330.518 379.209C330.778 379.209 331.104 378.916 331.494 378.33C331.95 377.679 332.503 377.223 333.154 376.963C333.805 376.702 334.261 376.247 334.522 375.596C338.167 371.624 340.967 369.346 342.92 368.76C343.18 368.76 343.604 368.434 344.19 367.783C344.841 367.132 345.361 366.742 345.752 366.611L347.901 364.951L348.779 365.342H348.975C349.105 365.342 349.626 365.016 350.537 364.365C351.449 363.714 352.1 363.389 352.49 363.389C354.964 363.389 356.983 364.235 358.545 365.928C360.173 367.555 360.986 368.825 360.986 369.736L360.498 371.982L361.182 375.01V376.963L360.693 379.014C360.693 379.404 360.954 379.958 361.475 380.674C362.061 381.39 362.354 381.878 362.354 382.139C361.572 382.985 361.182 383.538 361.182 383.799L361.377 385.557L360.889 390.928C360.889 391.383 361.312 392.132 362.158 393.174C362.549 392.913 363.102 392.686 363.818 392.49C364.535 392.295 365.088 392.1 365.479 391.904C365.869 391.644 366.065 391.514 366.065 391.514C366.065 391.449 366.032 391.416 365.967 391.416C366.097 391.416 366.488 391.546 367.139 391.807H367.529C368.05 391.807 368.343 391.318 368.408 390.342C368.473 389.3 369.124 388.454 370.361 387.803L372.705 387.998C372.835 387.868 373.096 387.347 373.486 386.436C373.942 385.459 375.309 384.059 377.588 382.236C379.932 380.348 381.722 379.404 382.959 379.404C384.001 379.404 384.522 379.86 384.522 380.771C384.522 381.032 384.391 381.715 384.131 382.822C384.652 383.734 384.912 384.515 384.912 385.166C384.912 386.403 383.838 387.738 381.69 389.17C379.606 390.602 378.011 392.393 376.904 394.541L376.514 394.932L374.561 394.736C374.43 394.736 374.105 395.257 373.584 396.299C373.128 397.275 372.575 397.829 371.924 397.959C371.273 398.089 370.817 398.285 370.557 398.545L368.506 399.814C368.115 400.075 366.813 401.41 364.6 403.818C362.451 406.162 360.628 407.334 359.131 407.334C358.48 407.334 357.308 407.008 355.615 406.357C353.923 405.641 352.783 404.925 352.197 404.209C351.611 403.493 350.765 402.679 349.658 401.768C348.617 400.856 348.096 399.131 348.096 396.592C348.096 396.462 348.259 396.234 348.584 395.908C348.975 395.583 349.17 395.322 349.17 395.127C347.673 393.174 346.924 391.774 346.924 390.928C346.924 390.537 346.989 390.114 347.119 389.658C347.249 389.202 347.315 388.779 347.315 388.389L347.119 384.971L347.51 383.213L347.315 382.139L347.901 377.158C347.901 376.377 347.445 375.986 346.533 375.986C346.273 375.986 345.915 376.247 345.459 376.768C345.003 377.288 344.417 377.712 343.701 378.037C343.05 378.298 342.334 379.209 341.553 380.771C340.381 381.423 339.567 382.074 339.111 382.725C338.721 383.311 338.395 383.604 338.135 383.604C338.005 383.604 337.744 383.538 337.354 383.408C336.572 383.929 336.182 384.515 336.182 385.166V385.557L336.377 386.338C336.377 386.924 335.889 387.477 334.912 387.998C333.936 388.519 332.731 389.854 331.299 392.002C330.648 392.002 330.192 392.067 329.932 392.197L328.76 394.541C328.109 394.932 327.49 395.615 326.904 396.592L325.733 397.178C325.277 398.024 324.821 398.74 324.365 399.326L323.779 400.4C320.98 403.721 319.027 405.381 317.92 405.381C316.813 405.381 315.479 403.916 313.916 400.986C312.354 398.057 311.572 395.778 311.572 394.15L311.963 390.537C311.963 390.407 311.703 389.886 311.182 388.975V388.584C311.182 388.454 311.442 387.705 311.963 386.338V383.408C311.963 383.278 311.898 383.083 311.768 382.822V382.334C311.768 382.204 312.028 381.683 312.549 380.771L311.963 377.939L312.354 376.377L312.158 372.959L312.549 369.932C312.549 369.736 312.354 369.411 311.963 368.955C311.637 368.434 311.41 368.174 311.279 368.174C310.824 368.174 309.457 368.923 307.178 370.42C304.964 371.917 303.467 373.089 302.686 373.936C301.904 374.782 300.863 375.791 299.561 376.963C298.193 377.614 297.249 379.274 296.729 381.943C296.729 382.074 296.598 382.139 296.338 382.139C296.338 382.008 296.143 381.878 295.752 381.748H295.361C295.036 381.748 294.027 383.148 292.334 385.947L291.943 386.338L290.088 385.947C288.526 385.947 287.744 387.607 287.744 390.928C287.744 391.514 287.321 391.904 286.475 392.1C285.693 392.295 285.075 392.848 284.619 393.76C284.164 394.671 283.545 395.615 282.764 396.592C281.266 397.243 280.42 397.731 280.225 398.057C280.225 398.122 279.509 399.098 278.076 400.986C276.644 402.874 275.863 403.981 275.733 404.307C275.602 404.632 275.147 405.023 274.365 405.479C273.649 405.869 273.291 406.227 273.291 406.553L273.584 408.213C273.584 409.255 272.575 409.775 270.557 409.775C266.651 409.775 264.697 405.706 264.697 397.568C264.697 396.657 265.088 395.648 265.869 394.541C266.716 393.369 267.529 391.969 268.311 390.342C269.548 389.105 271.012 387.314 272.705 384.971C274.398 382.627 275.667 381.032 276.514 380.186L277.783 378.135C277.783 377.354 277.946 376.768 278.272 376.377C278.597 375.986 278.76 375.498 278.76 374.912C278.76 373.87 278.499 373.35 277.979 373.35C276.742 373.35 275.765 373.675 275.049 374.326C274.333 374.912 273.519 375.335 272.608 375.596C271.761 375.856 271.208 376.312 270.947 376.963C270.036 377.354 269.059 378.2 268.018 379.502C267.041 380.739 266.39 381.52 266.065 381.846C265.739 382.171 265.414 382.627 265.088 383.213C264.828 383.734 264.47 384.027 264.014 384.092C263.558 384.157 263.135 384.385 262.744 384.775C262.354 385.166 261.735 385.361 260.889 385.361C260.303 385.361 259.749 384.775 259.229 383.604C258.773 382.367 258.545 381.618 258.545 381.357C258.545 376.605 261.703 372.503 268.018 369.053C268.864 368.597 269.515 368.141 269.971 367.686C270.492 367.23 271.012 366.872 271.533 366.611L271.924 365.928C272.445 365.146 274.398 364.04 277.783 362.607H279.151L285.693 360.947C288.493 360.296 289.893 363.454 289.893 370.42L289.697 372.178L290.088 372.959C291.195 371.917 292.302 371.006 293.408 370.225C294.58 369.378 295.427 368.63 295.947 367.979C296.468 367.327 297.477 366.676 298.975 366.025ZM459.131 385.166L460.693 383.799C461.67 383.799 462.256 383.376 462.451 382.529C462.647 381.618 463.33 380.902 464.502 380.381C465.739 379.86 466.878 378.818 467.92 377.256C468.962 375.628 470.036 374.814 471.143 374.814C471.533 374.814 471.989 375.14 472.51 375.791C473.031 376.442 473.291 376.963 473.291 377.354C473.291 379.502 472.64 381.715 471.338 383.994L470.947 386.729L470.264 387.998C469.287 388.519 468.636 389.072 468.311 389.658C468.05 390.244 467.302 390.96 466.065 391.807L465.088 393.174C463.656 393.63 462.679 394.378 462.158 395.42C461.703 396.462 461.019 397.048 460.108 397.178C459.261 397.308 458.317 397.959 457.276 399.131C456.624 399.456 455.843 399.749 454.932 400.01L454.736 400.986C454.085 401.637 453.044 402.158 451.611 402.549C450.244 402.939 449.203 403.33 448.486 403.721C447.835 404.046 447.38 404.209 447.119 404.209C445.882 404.209 444.743 403.981 443.701 403.525C442.66 403.005 441.585 402.679 440.479 402.549C440.088 402.158 439.86 401.735 439.795 401.279C439.73 400.824 439.404 400.238 438.818 399.521C438.233 398.74 437.94 397.699 437.94 396.396L438.33 394.541C438.33 394.281 438.167 393.955 437.842 393.564C437.516 393.174 437.354 392.848 437.354 392.588C437.354 392.327 437.419 392.132 437.549 392.002C437.679 391.872 437.744 391.676 437.744 391.416C437.744 391.09 437.679 390.732 437.549 390.342C437.419 389.951 437.354 389.626 437.354 389.365L437.94 384.58C437.94 384.189 437.809 383.994 437.549 383.994C437.289 383.994 436.8 384.32 436.084 384.971C435.433 385.622 434.652 385.947 433.74 385.947C433.22 386.338 432.796 387.152 432.471 388.389C431.95 389.04 431.299 389.626 430.518 390.146L430.127 390.732C429.997 391.188 429.509 391.579 428.662 391.904C427.816 392.165 427.23 392.523 426.904 392.979L425.928 393.955L424.072 393.76C423.942 393.89 423.584 394.476 422.998 395.518C422.412 396.494 421.664 397.308 420.752 397.959L413.33 404.014C412.549 404.535 411.41 405.186 409.912 405.967L409.326 406.553C404.118 410.003 400.44 411.729 398.291 411.729C396.533 411.729 394.483 411.24 392.139 410.264C389.795 409.287 388.526 408.115 388.33 406.748L387.354 402.744C386.768 401.833 386.475 400.563 386.475 398.936C386.475 398.154 386.54 397.633 386.67 397.373V396.787L386.475 393.564C386.475 392.783 387.093 392.393 388.33 392.393L388.135 389.756C388.135 389.495 388.688 388.486 389.795 386.729C390.967 384.906 391.748 383.864 392.139 383.604L393.115 382.334C393.05 381.553 393.506 380.739 394.483 379.893C395.459 378.981 396.24 378.07 396.826 377.158C397.412 376.247 398.519 375.238 400.147 374.131L403.076 371.201C405.355 368.923 407.829 367.1 410.498 365.732C410.889 365.602 411.67 364.951 412.842 363.779C414.079 362.607 415.446 361.761 416.943 361.24C418.506 360.654 420.003 359.938 421.436 359.092C422.933 358.245 424.105 357.822 424.951 357.822H425.733C425.993 357.822 427.718 357.008 430.908 355.381H431.494C431.755 355.381 432.373 355.641 433.35 356.162H433.545L435.108 355.381C435.368 355.251 435.693 355.186 436.084 355.186C440.121 355.186 442.334 357.985 442.725 363.584C442.855 364.756 443.18 365.342 443.701 365.342C444.352 365.342 445.264 364.17 446.436 361.826C447.673 359.417 450.244 358.213 454.151 358.213C456.95 358.213 458.35 360.003 458.35 363.584C458.35 367.816 456.462 371.82 452.686 375.596C452.425 376.117 452.23 376.702 452.1 377.354L450.733 381.357V381.553C450.733 381.943 450.44 382.497 449.854 383.213C449.333 383.864 449.072 384.45 449.072 384.971L449.268 387.412L448.877 390.146C448.877 391.383 449.105 392.197 449.561 392.588C451.644 392.067 453.141 391.221 454.053 390.049C455.029 388.812 455.713 388.128 456.104 387.998L457.08 387.607C457.666 386.631 458.35 385.817 459.131 385.166ZM426.709 385.166C426.97 383.734 427.751 382.66 429.053 381.943C430.42 381.162 431.234 380.381 431.494 379.6C432.731 378.688 434.489 377.061 436.768 374.717C439.111 372.373 440.283 370.941 440.283 370.42C440.283 370.225 440.153 370.127 439.893 370.127H439.697L438.916 370.615L437.158 370.42L435.303 370.615L433.936 369.932L432.666 370.127L430.713 369.736C429.671 369.736 428.76 369.964 427.979 370.42C427.262 370.811 425.83 371.266 423.682 371.787C421.598 372.308 419.71 373.219 418.018 374.521C416.325 375.758 415.088 376.377 414.307 376.377C413.851 377.354 412.321 378.753 409.717 380.576C408.154 381.097 407.145 382.236 406.69 383.994C404.997 385.361 404.151 386.143 404.151 386.338L403.467 387.998C402.946 388.454 402.295 388.844 401.514 389.17C400.733 389.43 400.277 390.114 400.147 391.221C400.016 392.262 399.561 393.239 398.779 394.15C398.063 394.997 397.705 395.68 397.705 396.201C397.705 399.391 398.324 400.986 399.561 400.986C400.082 400.986 401.156 400.661 402.783 400.01C404.476 399.294 405.453 398.805 405.713 398.545C405.973 398.285 406.494 398.024 407.276 397.764L409.131 396.787C409.391 396.527 409.684 396.364 410.01 396.299C410.335 396.234 410.661 396.038 410.986 395.713C411.312 395.322 411.898 394.932 412.744 394.541C413.591 394.085 414.242 393.499 414.697 392.783C415.804 392.132 417.595 391.123 420.068 389.756L422.119 388.193C423.552 387.542 424.43 386.989 424.756 386.533C425.082 386.077 425.733 385.622 426.709 385.166ZM512.451 327.744L511.865 323.936V323.35C511.865 320.29 512.907 318.597 514.99 318.271C515.446 318.206 516.813 317.783 519.092 317.002C520.264 317.262 521.468 318.304 522.705 320.127C524.007 321.885 524.658 323.447 524.658 324.814C524.658 324.945 524.561 325.238 524.365 325.693C524.17 326.149 524.04 327.028 523.975 328.33C523.91 329.567 523.259 330.674 522.022 331.65C520.85 332.562 519.58 333.018 518.213 333.018C517.302 333.018 516.13 332.399 514.697 331.162C513.33 329.86 512.582 328.721 512.451 327.744ZM470.264 376.572L471.826 375.205H472.412C472.868 375.205 473.552 374.717 474.463 373.74L475.44 373.35C476.742 371.396 477.881 370.257 478.858 369.932L480.42 368.76C480.68 368.499 481.039 368.271 481.494 368.076C482.015 367.881 482.796 367.262 483.838 366.221C484.945 365.114 485.824 364.561 486.475 364.561C487.126 364.561 487.647 364.626 488.037 364.756C488.428 363.975 489.209 363.226 490.381 362.51C491.553 361.729 492.497 360.817 493.213 359.775L494.483 359.189C495.524 358.669 496.436 358.018 497.217 357.236C498.063 356.39 499.137 355.967 500.44 355.967C502.328 355.967 504.281 356.943 506.299 358.896C508.382 360.785 509.424 362.607 509.424 364.365L507.764 371.982C506.657 377.581 505.42 380.511 504.053 380.771L503.662 382.822C502.751 383.473 502.295 383.994 502.295 384.385L502.881 386.729C502.881 387.054 502.523 387.542 501.807 388.193C501.677 388.193 501.611 388.389 501.611 388.779V392.783C501.611 393.499 501.156 394.085 500.244 394.541C500.374 394.671 500.57 394.801 500.83 394.932C501.221 394.541 502.1 394.346 503.467 394.346L505.029 394.541L507.178 392.393C507.634 392.262 508.252 391.969 509.033 391.514C509.88 390.993 511.279 390.342 513.233 389.561L526.026 379.795C527.783 378.037 529.118 377.158 530.029 377.158C531.006 377.158 531.494 377.777 531.494 379.014C531.494 380.446 531.201 381.65 530.615 382.627C530.095 383.538 529.606 384.678 529.151 386.045C528.695 387.347 528.141 388.258 527.49 388.779C526.904 389.3 526.416 389.886 526.026 390.537C525.635 391.123 524.561 392.002 522.803 393.174C521.11 394.346 519.645 395.55 518.408 396.787C517.236 397.959 516.26 398.805 515.479 399.326L511.279 402.354L510.693 403.33C510.563 403.46 509.945 403.753 508.838 404.209C507.796 404.6 506.852 405.12 506.006 405.771L504.248 406.748C503.858 407.008 503.207 407.171 502.295 407.236C501.449 407.301 500.7 407.692 500.049 408.408C499.398 409.059 498.877 409.385 498.486 409.385L497.022 409.189L495.068 409.775C493.962 409.775 492.595 409.124 490.967 407.822C489.404 406.455 488.623 405.023 488.623 403.525V402.939L488.818 401.572C488.818 401.312 488.623 400.661 488.233 399.619C487.842 398.512 487.647 397.894 487.647 397.764L487.842 396.396L487.647 395.811C487.647 394.053 487.777 392.946 488.037 392.49C488.298 392.035 488.493 391.416 488.623 390.635C488.753 389.788 488.884 389.105 489.014 388.584L489.502 386.143C489.762 385.361 490.088 384.84 490.479 384.58C490.609 384.059 490.869 383.18 491.26 381.943L491.651 380.186L492.627 378.818C493.148 378.298 493.441 377.614 493.506 376.768C493.636 375.856 493.994 374.912 494.58 373.936C495.166 372.959 495.459 372.373 495.459 372.178C495.459 371.396 495.068 371.006 494.287 371.006C494.027 371.006 493.213 371.527 491.846 372.568L490.088 371.982C489.958 371.982 489.6 372.308 489.014 372.959C489.014 373.219 488.721 373.415 488.135 373.545C487.549 373.675 486.996 374.163 486.475 375.01L485.693 375.205L484.424 374.619H484.033C483.382 374.619 482.992 375.335 482.861 376.768C482.145 377.809 481.201 378.493 480.029 378.818L477.881 379.404C477.165 379.665 476.644 380.251 476.318 381.162C475.993 382.074 475.342 382.92 474.365 383.701C473.389 384.417 472.738 384.775 472.412 384.775C470.589 384.775 469.678 383.766 469.678 381.748L470.459 377.158L470.264 376.572ZM540.381 387.217V386.533C540.381 385.622 540.446 384.906 540.576 384.385C540.186 383.343 539.99 382.399 539.99 381.553C539.99 381.423 540.316 380.511 540.967 378.818L541.846 375.791C542.302 374.619 542.562 374.001 542.627 373.936C542.236 372.894 542.041 372.308 542.041 372.178C542.041 370.68 542.464 369.443 543.311 368.467C544.157 367.49 544.873 366.123 545.459 364.365L547.412 358.408L550.635 350.596C550.7 350.4 550.993 349.88 551.514 349.033C552.1 348.187 552.555 347.471 552.881 346.885C553.272 346.234 553.792 345.322 554.443 344.15L555.42 343.955C555.68 343.695 555.811 343.434 555.811 343.174C555.811 343.044 555.68 342.523 555.42 341.611L558.838 335.947L560.889 331.748C561.54 330.641 562.256 329.925 563.037 329.6C564.339 327.191 565.479 325.726 566.455 325.205C566.846 323.968 567.562 322.633 568.604 321.201L570.459 321.006C570.785 320.094 571.11 319.411 571.436 318.955L571.631 317.002C571.631 317.393 571.794 317.295 572.119 316.709C572.445 316.058 572.933 314.886 573.584 313.193L576.221 310.166L577.002 308.799C577.328 308.343 577.848 307.464 578.565 306.162C579.541 305.771 580.355 305.055 581.006 304.014L583.057 302.354C582.927 301.637 583.708 300.042 585.401 297.568C586.507 297.113 587.516 296.527 588.428 295.811L589.795 295.42C589.795 293.141 590.609 291.579 592.236 290.732L593.408 289.951C594.45 289.43 595.036 289.17 595.166 289.17L595.85 288.975C596.631 288.714 597.542 288.584 598.584 288.584C600.993 288.584 603.174 289.495 605.127 291.318C607.08 293.076 608.057 295.094 608.057 297.373C608.057 298.285 607.568 299.229 606.592 300.205L606.201 300.986C605.29 304.567 604.639 306.357 604.248 306.357C603.988 306.357 603.63 306.553 603.174 306.943C603.044 309.092 602.914 310.296 602.783 310.557C601.611 310.752 601.026 312.217 601.026 314.951C600.895 315.342 600.407 316.025 599.561 317.002C598.779 317.913 598.161 319.215 597.705 320.908C597.249 322.536 596.761 323.35 596.24 323.35H595.166L595.459 324.814C595.459 325.726 595.003 326.637 594.092 327.549C593.246 328.395 592.725 329.307 592.529 330.283C592.334 331.26 591.553 332.432 590.186 333.799L589.209 335.361C588.818 336.012 588.298 336.696 587.647 337.412C586.996 338.128 586.442 339.235 585.986 340.732L583.447 345.42C581.69 348.61 580.355 350.14 579.443 350.01C578.858 352.549 578.467 354.014 578.272 354.404C578.076 354.795 577.621 355.153 576.904 355.479C576.188 355.804 575.635 356.39 575.244 357.236C574.854 358.018 574.43 358.604 573.975 358.994L572.217 362.607C571.175 363.063 570.427 363.91 569.971 365.146C568.929 365.407 568.278 366.286 568.018 367.783C567.757 368.044 567.432 368.63 567.041 369.541L563.623 372.959C561.865 374.196 560.921 375.628 560.791 377.256C560.661 378.818 559.815 379.6 558.252 379.6C557.145 379.6 555.518 379.111 553.369 378.135H553.174C552.979 379.046 552.523 380.055 551.807 381.162L552.197 383.799C552.197 384.124 551.677 386.175 550.635 389.951C551.156 390.928 551.416 391.611 551.416 392.002L551.221 394.15L551.709 396.787C552.035 398.936 552.816 400.01 554.053 400.01L556.397 400.4C556.527 400.4 557.341 399.912 558.838 398.936L562.451 396.982C562.582 396.982 562.647 397.048 562.647 397.178C563.298 397.438 563.818 397.568 564.209 397.568C564.86 397.568 565.186 397.048 565.186 396.006V394.736C565.576 394.085 566.032 393.695 566.553 393.564C567.139 393.434 567.66 393.141 568.115 392.686C568.571 392.23 568.929 392.002 569.19 392.002H570.166C571.143 392.002 571.631 390.863 571.631 388.584C571.891 388.454 572.217 388.193 572.608 387.803H573.779C574.3 387.803 574.854 387.184 575.44 385.947C576.091 384.645 576.546 383.864 576.807 383.604C577.979 383.473 578.792 383.278 579.248 383.018C581.332 379.242 582.927 377.354 584.033 377.354H584.619C585.726 376.312 586.312 375.4 586.377 374.619C586.507 373.773 586.833 373.219 587.354 372.959C587.94 372.699 588.46 372.373 588.916 371.982C589.372 371.592 589.665 371.396 589.795 371.396C590.772 371.396 591.26 371.755 591.26 372.471L590.967 375.205L591.651 378.135C591.651 378.395 591.358 378.916 590.772 379.697C590.251 380.413 589.99 381.227 589.99 382.139C589.99 384.027 589.665 385.036 589.014 385.166C588.363 385.296 587.809 385.752 587.354 386.533C586.963 387.249 586.279 387.933 585.303 388.584C584.326 389.17 583.578 390.049 583.057 391.221L581.397 391.611L580.42 392.197C579.639 394.215 578.792 395.452 577.881 395.908C577.035 396.364 575.96 397.731 574.658 400.01C574.463 400.01 574.365 400.075 574.365 400.205L572.803 400.01C572.217 401.051 571.631 401.67 571.045 401.865C570.459 402.061 569.971 402.451 569.58 403.037C569.19 403.558 568.473 404.014 567.432 404.404C566.455 404.795 565.837 405.251 565.576 405.771C565.316 406.292 564.925 406.585 564.404 406.65C563.884 406.715 563.395 406.976 562.94 407.432C562.484 407.822 562.093 408.018 561.768 408.018C561.637 408.018 561.182 407.952 560.401 407.822H560.01C558.903 408.604 557.992 408.994 557.276 408.994C556.429 408.994 555.811 409.124 555.42 409.385C555.029 409.124 554.411 408.929 553.565 408.799C552.783 408.669 551.872 408.343 550.83 407.822C549.723 408.083 549.04 408.213 548.779 408.213C547.673 408.213 546.273 407.139 544.58 404.99C542.887 402.777 542.041 400.628 542.041 398.545C542.041 398.48 541.651 397.992 540.869 397.08C540.153 396.104 539.795 395.062 539.795 393.955V392.979L539.99 391.807V389.951L540.186 389.365C541.162 389.235 541.651 389.105 541.651 388.975L540.381 387.217ZM560.205 361.338L562.256 360.166C562.516 359.124 563.363 357.887 564.795 356.455C566.227 354.958 567.236 354.209 567.822 354.209H568.604C568.604 353.753 568.701 353.298 568.897 352.842C569.092 352.386 569.19 351.768 569.19 350.986C569.19 350.596 570.068 349.521 571.826 347.764L572.608 346.006C573.193 344.313 574.658 342.913 577.002 341.807C577.914 339.919 578.597 338.975 579.053 338.975L579.834 338.779C580.095 337.803 580.615 336.924 581.397 336.143L581.787 335.557V333.994C581.787 333.864 582.21 333.343 583.057 332.432C583.968 331.455 584.619 330.576 585.01 329.795C585.401 328.949 585.921 328.298 586.572 327.842C587.289 327.386 587.777 326.572 588.037 325.4L589.6 325.205C589.6 324.359 589.665 323.805 589.795 323.545L589.99 322.568C590.316 321.787 591.455 319.736 593.408 316.416L594.971 312.803C594.971 312.412 595.231 311.956 595.752 311.436C596.338 310.85 596.631 310.036 596.631 308.994L597.412 305.771C597.412 304.274 597.152 303.525 596.631 303.525C595.98 303.981 595.361 304.307 594.776 304.502C594.255 304.697 593.734 305.869 593.213 308.018C591.26 308.473 590.121 309.417 589.795 310.85C589.535 312.217 588.753 313.389 587.451 314.365L586.768 315.537C586.637 316.253 586.019 317.002 584.912 317.783C583.805 318.564 582.764 319.899 581.787 321.787C578.532 326.279 576.742 328.688 576.416 329.014L575.44 330.186L573.975 329.99C574.235 331.032 574.365 331.618 574.365 331.748C574.365 332.139 574.17 332.529 573.779 332.92C573.389 333.245 573.096 333.669 572.901 334.189C572.705 334.71 572.315 335.329 571.729 336.045C571.143 336.696 570.589 337.803 570.068 339.365C569.613 340.863 569.19 341.742 568.799 342.002L567.432 341.807C566.585 342.327 566.162 342.848 566.162 343.369L566.455 344.736C566.455 344.997 566.26 345.322 565.869 345.713C565.544 346.038 565.218 346.722 564.893 347.764C564.567 348.805 563.753 350.4 562.451 352.549C561.149 354.632 560.108 356.878 559.326 359.287C558.61 361.631 557.894 363.128 557.178 363.779C557.308 363.91 557.503 363.975 557.764 363.975C558.61 363.975 559.424 363.096 560.205 361.338Z" fill="black"/>
<path d="M255.541 148.583C255.541 184.108 220.464 213.681 176.144 213.681C131.824 213.681 96.7471 184.108 96.7471 148.583C96.7471 113.057 131.824 83.4844 176.144 83.4844C220.464 83.4844 255.541 113.057 255.541 148.583Z" fill="#F1F1F1" stroke="#484848" stroke-width="5"/>
<path d="M143.518 116.37L158.013 119.333L173.622 117.454L184.6 110.082L188.031 121.068L202.353 129.38H215.304L203.983 141.883V155.038L209.986 164.723L196.264 166.814L190.205 177.082L172.421 171.011L154.389 177.082L150.294 160.603L128.853 149.834L141.889 140.004L144.419 127.356L143.518 116.37Z" fill="#592C2C"/>
<path d="M143.518 116.37L158.013 119.333L173.622 117.454L184.6 110.082L188.031 121.068L202.353 129.38H215.304L203.983 141.883V155.038L209.986 164.723L196.264 166.814L190.205 177.082L172.421 171.011L154.389 177.082L150.294 160.603L128.853 149.834L141.889 140.004L144.419 127.356L143.518 116.37Z" stroke="black"/>
</svg>
